<svg xmlns="http://www.w3.org/2000/svg" width="1408" height="768" viewBox="0 0 1408 768">
  <!-- Bird silhouette, holes filled. Same pixel space as the mask:
       draw at (0,0) unscaled and it overlays the mask exactly. -->
  <g fill="#000000" fill-rule="evenodd">
    <path d="M 1022 62 L 1021 63 L 1018 63 L 1017 64 L 1015 64 L 1014 65 L 1011 65 L 1010 66 L 1008 66 L 1007 67 L 1005 67 L 1004 68 L 1002 68 L 1001 69 L 999 69 L 998 70 L 997 70 L 996 71 L 994 71 L 993 72 L 991 72 L 990 73 L 988 73 L 987 74 L 985 74 L 984 75 L 983 75 L 982 76 L 981 76 L 980 77 L 979 77 L 978 78 L 976 78 L 975 79 L 974 79 L 973 80 L 971 80 L 970 81 L 969 81 L 968 82 L 967 82 L 966 83 L 965 83 L 964 84 L 963 84 L 962 85 L 961 85 L 960 86 L 958 86 L 957 87 L 956 87 L 955 88 L 954 88 L 953 89 L 952 89 L 951 90 L 950 90 L 949 91 L 948 91 L 947 92 L 946 92 L 945 93 L 944 93 L 943 94 L 942 94 L 941 95 L 940 95 L 939 96 L 938 96 L 937 97 L 936 97 L 935 98 L 933 98 L 932 99 L 931 99 L 930 100 L 929 100 L 928 101 L 926 101 L 925 102 L 924 102 L 923 103 L 922 103 L 921 104 L 920 104 L 918 106 L 917 106 L 916 107 L 915 107 L 913 109 L 911 109 L 909 111 L 908 111 L 907 112 L 906 112 L 903 115 L 902 115 L 900 117 L 899 117 L 898 118 L 897 118 L 895 120 L 894 120 L 893 121 L 892 121 L 891 122 L 890 122 L 889 123 L 888 123 L 887 124 L 886 124 L 884 126 L 883 126 L 882 127 L 881 127 L 880 128 L 879 128 L 877 130 L 876 130 L 875 131 L 874 131 L 872 133 L 871 133 L 870 134 L 869 134 L 868 135 L 867 135 L 866 136 L 865 136 L 863 138 L 862 138 L 861 139 L 860 139 L 858 141 L 857 141 L 854 144 L 853 144 L 850 147 L 849 147 L 840 156 L 839 156 L 837 158 L 833 158 L 832 159 L 830 159 L 829 160 L 827 160 L 825 162 L 824 162 L 823 163 L 821 163 L 820 164 L 819 164 L 818 165 L 817 165 L 816 166 L 814 166 L 813 167 L 812 167 L 811 168 L 810 168 L 809 169 L 808 169 L 807 170 L 806 170 L 805 171 L 804 171 L 802 173 L 801 173 L 799 175 L 798 175 L 797 176 L 796 176 L 794 178 L 793 178 L 791 180 L 790 180 L 787 183 L 786 183 L 784 185 L 783 185 L 780 188 L 779 188 L 774 193 L 773 193 L 759 207 L 758 207 L 744 221 L 743 221 L 740 224 L 739 224 L 736 227 L 735 227 L 733 229 L 732 229 L 731 230 L 730 230 L 728 232 L 727 232 L 726 233 L 725 233 L 723 235 L 722 235 L 721 236 L 720 236 L 719 237 L 718 237 L 717 238 L 716 238 L 714 240 L 706 240 L 705 239 L 704 239 L 703 238 L 702 238 L 701 237 L 697 237 L 696 236 L 694 236 L 693 235 L 692 235 L 691 234 L 689 234 L 688 233 L 687 233 L 686 232 L 684 232 L 683 231 L 682 231 L 681 230 L 679 230 L 678 229 L 677 229 L 676 228 L 675 228 L 673 226 L 672 226 L 670 224 L 669 224 L 667 222 L 666 222 L 662 218 L 661 218 L 658 215 L 657 215 L 656 214 L 655 214 L 651 210 L 650 210 L 645 205 L 644 205 L 641 202 L 641 201 L 640 200 L 639 200 L 637 198 L 636 198 L 635 197 L 634 197 L 633 196 L 632 196 L 631 195 L 629 195 L 628 194 L 626 194 L 625 193 L 624 193 L 623 192 L 622 192 L 621 191 L 618 191 L 617 190 L 615 190 L 614 189 L 613 189 L 612 188 L 609 188 L 608 187 L 602 187 L 601 186 L 594 186 L 593 185 L 581 185 L 580 184 L 566 184 L 565 185 L 555 185 L 554 186 L 549 186 L 548 187 L 546 187 L 545 188 L 542 188 L 541 189 L 539 189 L 538 190 L 536 190 L 534 192 L 532 192 L 531 193 L 529 193 L 528 194 L 526 194 L 525 195 L 524 195 L 523 196 L 522 196 L 520 198 L 519 198 L 517 200 L 516 200 L 514 202 L 513 202 L 511 204 L 510 204 L 504 210 L 503 210 L 503 211 L 495 219 L 494 219 L 493 220 L 493 221 L 492 222 L 492 223 L 491 224 L 491 225 L 490 226 L 490 227 L 487 230 L 487 231 L 486 232 L 486 234 L 484 236 L 484 240 L 483 241 L 483 243 L 482 244 L 482 245 L 481 246 L 476 246 L 473 243 L 472 243 L 470 241 L 468 241 L 467 240 L 466 240 L 465 239 L 464 239 L 463 238 L 462 238 L 461 237 L 459 237 L 458 236 L 457 236 L 456 235 L 454 235 L 453 234 L 452 234 L 451 233 L 448 233 L 447 232 L 443 232 L 442 231 L 440 231 L 439 230 L 434 230 L 433 229 L 430 229 L 429 228 L 423 228 L 422 227 L 417 227 L 416 226 L 410 226 L 409 225 L 403 225 L 402 224 L 399 224 L 398 223 L 394 223 L 393 222 L 389 222 L 388 221 L 385 221 L 384 220 L 382 220 L 381 219 L 378 219 L 377 218 L 375 218 L 374 217 L 372 217 L 371 216 L 369 216 L 368 215 L 366 215 L 365 214 L 364 214 L 363 213 L 358 213 L 357 212 L 350 212 L 349 211 L 345 211 L 344 210 L 340 210 L 339 209 L 337 209 L 336 208 L 329 208 L 328 207 L 325 207 L 324 206 L 319 206 L 318 205 L 314 205 L 313 204 L 307 204 L 306 203 L 301 203 L 300 202 L 296 202 L 295 201 L 292 201 L 291 200 L 287 200 L 286 199 L 283 199 L 282 198 L 275 198 L 274 197 L 270 197 L 269 196 L 266 196 L 265 195 L 261 195 L 260 194 L 252 194 L 251 193 L 246 193 L 245 192 L 236 192 L 235 191 L 217 191 L 217 195 L 218 195 L 220 197 L 221 197 L 223 199 L 224 199 L 225 200 L 225 204 L 224 205 L 216 205 L 215 206 L 203 206 L 202 207 L 192 207 L 191 208 L 188 208 L 188 212 L 189 213 L 190 213 L 193 216 L 194 216 L 198 220 L 199 220 L 200 221 L 201 221 L 202 222 L 204 222 L 205 223 L 207 223 L 208 224 L 210 224 L 211 225 L 213 225 L 214 226 L 217 226 L 218 227 L 219 227 L 220 228 L 222 228 L 223 229 L 227 229 L 228 230 L 229 230 L 230 231 L 231 231 L 232 232 L 232 237 L 235 240 L 236 240 L 237 241 L 238 241 L 240 243 L 241 243 L 242 244 L 243 244 L 244 245 L 246 245 L 247 246 L 252 246 L 253 247 L 258 247 L 259 248 L 261 248 L 262 249 L 266 249 L 267 250 L 267 254 L 265 256 L 264 256 L 264 260 L 266 262 L 267 262 L 268 263 L 270 263 L 271 264 L 273 264 L 274 265 L 276 265 L 277 266 L 279 266 L 280 267 L 283 267 L 284 268 L 288 268 L 289 269 L 291 269 L 292 270 L 295 270 L 296 271 L 299 271 L 300 272 L 303 272 L 305 274 L 305 283 L 307 285 L 308 285 L 309 286 L 310 286 L 311 287 L 313 287 L 314 288 L 317 288 L 318 289 L 321 289 L 322 290 L 325 290 L 326 291 L 328 291 L 329 292 L 331 292 L 332 293 L 334 293 L 335 294 L 336 294 L 337 295 L 337 296 L 338 297 L 338 299 L 341 302 L 342 302 L 344 304 L 346 304 L 347 305 L 349 305 L 350 306 L 352 306 L 353 307 L 366 307 L 367 308 L 368 308 L 369 309 L 369 313 L 371 315 L 371 316 L 372 317 L 373 317 L 374 318 L 375 318 L 376 319 L 378 319 L 379 320 L 380 320 L 381 321 L 394 321 L 395 322 L 395 323 L 396 324 L 396 326 L 397 327 L 397 328 L 398 328 L 399 329 L 400 329 L 401 330 L 404 330 L 405 331 L 412 331 L 413 332 L 414 332 L 415 333 L 416 333 L 419 336 L 420 336 L 421 337 L 423 337 L 425 339 L 425 341 L 426 342 L 426 346 L 427 347 L 427 348 L 428 348 L 429 349 L 433 349 L 434 350 L 435 350 L 436 351 L 436 353 L 437 354 L 437 360 L 438 361 L 438 363 L 439 364 L 449 364 L 450 365 L 450 367 L 451 368 L 451 374 L 452 375 L 452 377 L 453 378 L 453 379 L 454 380 L 460 380 L 463 383 L 463 386 L 464 387 L 464 388 L 465 389 L 465 390 L 466 391 L 466 392 L 467 393 L 472 393 L 473 392 L 477 392 L 479 394 L 479 397 L 480 398 L 480 399 L 481 400 L 481 401 L 482 402 L 482 403 L 483 404 L 483 405 L 490 405 L 491 404 L 495 404 L 496 405 L 497 405 L 498 406 L 498 407 L 499 408 L 499 409 L 500 410 L 500 412 L 501 413 L 501 414 L 502 415 L 506 415 L 509 412 L 513 412 L 514 413 L 515 413 L 519 417 L 520 417 L 521 418 L 522 418 L 525 421 L 525 422 L 527 424 L 527 425 L 528 426 L 528 427 L 529 428 L 529 429 L 530 430 L 530 431 L 531 432 L 531 433 L 533 435 L 533 437 L 534 438 L 534 439 L 535 440 L 535 441 L 537 443 L 537 444 L 538 445 L 538 446 L 539 447 L 539 448 L 541 450 L 541 451 L 543 453 L 543 454 L 545 456 L 545 457 L 546 458 L 546 459 L 550 463 L 550 464 L 553 467 L 553 468 L 558 473 L 558 474 L 559 474 L 565 480 L 566 480 L 568 482 L 569 482 L 571 484 L 572 484 L 575 487 L 576 487 L 581 492 L 582 492 L 584 494 L 585 494 L 587 496 L 588 496 L 591 499 L 592 499 L 593 500 L 594 500 L 597 503 L 598 503 L 600 505 L 601 505 L 602 506 L 603 506 L 605 508 L 606 508 L 607 509 L 608 509 L 610 511 L 611 511 L 612 512 L 613 512 L 614 513 L 615 513 L 617 515 L 618 515 L 620 517 L 620 518 L 621 519 L 621 525 L 620 526 L 620 527 L 619 528 L 619 529 L 617 531 L 617 535 L 620 538 L 621 538 L 623 540 L 624 540 L 631 547 L 631 548 L 632 549 L 632 550 L 634 552 L 634 553 L 635 554 L 635 555 L 636 556 L 637 556 L 638 557 L 652 557 L 653 558 L 657 558 L 658 559 L 661 559 L 662 560 L 665 560 L 666 561 L 674 561 L 674 557 L 668 557 L 667 556 L 667 550 L 669 548 L 669 544 L 666 544 L 664 542 L 664 541 L 663 540 L 653 540 L 652 539 L 651 539 L 648 536 L 648 535 L 645 532 L 645 528 L 646 527 L 650 527 L 651 528 L 654 528 L 655 529 L 658 529 L 659 530 L 661 530 L 662 531 L 664 531 L 665 532 L 669 532 L 670 533 L 671 533 L 674 536 L 674 541 L 683 541 L 683 536 L 684 535 L 690 535 L 691 536 L 698 536 L 699 535 L 703 535 L 704 536 L 704 539 L 705 540 L 705 544 L 706 545 L 706 548 L 707 549 L 707 550 L 709 552 L 709 553 L 710 553 L 711 554 L 713 554 L 714 555 L 717 555 L 718 556 L 719 556 L 723 560 L 724 560 L 725 561 L 726 561 L 727 562 L 730 562 L 734 566 L 736 566 L 737 567 L 738 567 L 739 568 L 744 568 L 744 564 L 742 564 L 740 562 L 740 560 L 739 559 L 739 555 L 740 554 L 742 554 L 742 550 L 741 549 L 741 546 L 738 543 L 737 543 L 736 542 L 733 542 L 732 541 L 730 541 L 729 540 L 729 539 L 728 538 L 728 535 L 727 534 L 727 532 L 726 531 L 726 528 L 725 527 L 725 523 L 726 522 L 726 521 L 727 520 L 731 520 L 732 521 L 732 522 L 734 524 L 736 524 L 737 525 L 739 525 L 740 526 L 740 527 L 741 528 L 741 529 L 742 529 L 743 530 L 745 530 L 748 533 L 748 534 L 749 535 L 749 536 L 750 537 L 761 537 L 762 538 L 762 539 L 766 539 L 766 533 L 765 533 L 761 529 L 760 529 L 758 527 L 756 527 L 755 526 L 754 526 L 753 525 L 750 525 L 749 524 L 748 524 L 747 523 L 746 523 L 745 522 L 744 522 L 739 517 L 739 513 L 740 512 L 746 512 L 747 513 L 757 513 L 758 514 L 761 514 L 762 515 L 768 515 L 769 516 L 771 516 L 772 517 L 774 517 L 775 518 L 778 518 L 779 519 L 781 519 L 782 520 L 784 520 L 785 521 L 786 521 L 787 522 L 787 526 L 786 527 L 776 527 L 775 528 L 773 528 L 773 532 L 774 532 L 778 536 L 779 536 L 780 537 L 781 537 L 783 539 L 784 539 L 785 540 L 785 541 L 786 542 L 786 544 L 787 545 L 787 546 L 788 547 L 788 548 L 789 549 L 789 550 L 790 551 L 790 552 L 792 554 L 792 555 L 793 556 L 793 557 L 795 559 L 795 560 L 797 562 L 797 564 L 798 565 L 798 566 L 800 568 L 800 569 L 801 570 L 801 571 L 803 573 L 803 575 L 805 577 L 805 578 L 806 579 L 806 580 L 807 581 L 807 582 L 809 584 L 809 586 L 810 587 L 810 588 L 811 589 L 811 590 L 813 592 L 813 593 L 814 594 L 814 595 L 815 596 L 815 597 L 816 598 L 816 599 L 817 600 L 817 601 L 818 602 L 818 604 L 819 605 L 819 606 L 820 607 L 820 608 L 821 609 L 821 611 L 822 612 L 822 613 L 823 614 L 823 615 L 824 616 L 824 617 L 825 618 L 825 619 L 826 620 L 826 622 L 827 623 L 827 624 L 828 625 L 828 626 L 829 627 L 829 629 L 830 630 L 830 631 L 831 632 L 831 633 L 832 634 L 832 635 L 833 636 L 833 638 L 834 639 L 834 640 L 835 641 L 835 642 L 836 643 L 836 644 L 837 645 L 837 646 L 838 647 L 838 648 L 839 649 L 839 650 L 840 651 L 840 652 L 841 653 L 841 654 L 842 655 L 842 656 L 843 657 L 843 658 L 845 660 L 845 661 L 846 662 L 846 663 L 847 664 L 847 665 L 851 669 L 851 670 L 853 672 L 854 672 L 855 673 L 856 673 L 857 674 L 858 674 L 861 677 L 862 677 L 863 678 L 867 678 L 868 677 L 869 677 L 870 676 L 871 676 L 873 674 L 877 674 L 880 677 L 881 677 L 882 678 L 886 678 L 888 676 L 889 676 L 891 674 L 902 674 L 904 672 L 904 671 L 905 670 L 905 669 L 906 668 L 906 667 L 908 665 L 908 664 L 909 663 L 909 657 L 910 656 L 910 655 L 911 654 L 915 654 L 916 655 L 917 655 L 919 657 L 920 657 L 922 659 L 925 659 L 926 660 L 932 660 L 933 661 L 937 661 L 938 662 L 948 662 L 949 661 L 951 661 L 952 660 L 953 660 L 954 659 L 956 659 L 957 658 L 960 658 L 961 657 L 962 657 L 963 656 L 964 656 L 964 650 L 965 649 L 966 649 L 967 648 L 970 648 L 971 647 L 975 647 L 976 646 L 977 646 L 979 644 L 979 637 L 978 636 L 978 633 L 977 632 L 977 630 L 976 629 L 976 627 L 975 626 L 975 625 L 974 624 L 974 623 L 973 622 L 973 621 L 972 620 L 972 619 L 970 617 L 970 616 L 968 614 L 968 613 L 966 611 L 966 610 L 964 608 L 964 607 L 950 593 L 949 593 L 941 585 L 940 585 L 927 572 L 926 572 L 920 566 L 919 566 L 913 560 L 913 559 L 912 559 L 908 555 L 908 554 L 902 548 L 902 547 L 898 543 L 898 542 L 894 538 L 894 537 L 889 532 L 889 531 L 882 524 L 882 523 L 880 521 L 879 521 L 877 519 L 877 518 L 875 516 L 875 515 L 867 507 L 867 506 L 863 502 L 863 501 L 861 499 L 860 499 L 859 498 L 859 497 L 858 496 L 858 495 L 857 495 L 855 493 L 855 492 L 850 487 L 850 486 L 848 484 L 848 478 L 847 477 L 847 476 L 846 475 L 846 474 L 845 473 L 845 472 L 844 471 L 844 470 L 843 469 L 843 467 L 842 466 L 842 465 L 841 464 L 841 462 L 840 461 L 840 460 L 839 459 L 839 457 L 838 456 L 838 454 L 837 453 L 837 452 L 836 451 L 836 450 L 835 449 L 835 446 L 834 445 L 834 441 L 833 440 L 833 439 L 832 438 L 832 436 L 830 434 L 830 433 L 829 432 L 829 431 L 827 429 L 827 428 L 826 427 L 826 426 L 824 424 L 824 423 L 822 421 L 822 419 L 820 417 L 820 416 L 819 415 L 819 411 L 820 410 L 827 410 L 828 411 L 829 411 L 831 413 L 832 413 L 834 415 L 835 415 L 836 416 L 837 416 L 838 417 L 839 417 L 840 418 L 841 418 L 842 419 L 843 419 L 844 420 L 850 420 L 851 419 L 851 418 L 852 417 L 852 416 L 853 415 L 859 415 L 860 416 L 861 416 L 862 417 L 864 417 L 865 418 L 866 418 L 867 419 L 873 419 L 874 418 L 876 418 L 877 417 L 877 408 L 878 407 L 885 407 L 886 408 L 891 408 L 892 407 L 894 407 L 897 404 L 897 395 L 898 394 L 909 394 L 910 393 L 911 393 L 912 392 L 913 392 L 913 390 L 914 389 L 914 384 L 915 383 L 915 380 L 917 378 L 925 378 L 926 377 L 929 377 L 930 376 L 930 362 L 933 359 L 940 359 L 941 358 L 941 357 L 946 352 L 947 352 L 947 351 L 948 350 L 948 344 L 944 340 L 944 336 L 945 335 L 948 335 L 949 334 L 951 334 L 952 333 L 953 333 L 954 332 L 955 332 L 957 330 L 957 329 L 958 328 L 958 327 L 959 326 L 959 322 L 958 321 L 958 320 L 957 319 L 957 315 L 958 314 L 959 314 L 960 313 L 961 313 L 965 309 L 965 307 L 966 306 L 966 301 L 964 299 L 964 295 L 965 294 L 966 294 L 967 293 L 969 293 L 970 292 L 973 292 L 974 291 L 977 291 L 978 290 L 980 290 L 981 289 L 982 289 L 985 286 L 986 286 L 989 283 L 990 283 L 992 281 L 993 281 L 995 279 L 996 279 L 999 276 L 999 275 L 1001 273 L 1002 273 L 1004 271 L 1004 270 L 1005 269 L 1005 268 L 1006 267 L 1006 265 L 1008 263 L 1009 263 L 1011 261 L 1015 261 L 1016 260 L 1017 260 L 1019 258 L 1020 258 L 1026 252 L 1027 252 L 1028 251 L 1028 250 L 1029 249 L 1029 244 L 1030 243 L 1030 242 L 1033 239 L 1034 239 L 1036 237 L 1037 237 L 1038 236 L 1039 236 L 1040 235 L 1041 235 L 1042 234 L 1043 234 L 1045 232 L 1046 232 L 1048 230 L 1048 222 L 1049 221 L 1051 221 L 1052 220 L 1053 220 L 1054 219 L 1056 219 L 1057 218 L 1058 218 L 1059 217 L 1060 217 L 1061 216 L 1062 216 L 1063 215 L 1064 215 L 1065 214 L 1066 214 L 1067 213 L 1068 213 L 1069 212 L 1070 212 L 1071 211 L 1072 211 L 1073 210 L 1074 210 L 1075 209 L 1076 209 L 1082 203 L 1082 199 L 1079 196 L 1079 192 L 1081 190 L 1084 190 L 1085 189 L 1088 189 L 1089 188 L 1093 188 L 1094 187 L 1098 187 L 1099 186 L 1101 186 L 1102 185 L 1104 185 L 1105 184 L 1107 184 L 1108 183 L 1110 183 L 1111 182 L 1113 182 L 1114 181 L 1115 181 L 1116 180 L 1117 180 L 1119 178 L 1120 178 L 1120 172 L 1118 172 L 1117 171 L 1112 171 L 1111 170 L 1103 170 L 1102 169 L 1099 169 L 1098 168 L 1098 164 L 1099 163 L 1104 163 L 1105 162 L 1107 162 L 1108 161 L 1110 161 L 1111 160 L 1113 160 L 1114 159 L 1115 159 L 1116 158 L 1117 158 L 1118 157 L 1121 157 L 1122 156 L 1123 156 L 1125 154 L 1127 154 L 1128 153 L 1129 153 L 1130 152 L 1131 152 L 1132 151 L 1133 151 L 1134 150 L 1135 150 L 1136 149 L 1137 149 L 1138 148 L 1139 148 L 1141 146 L 1142 146 L 1144 144 L 1144 143 L 1145 142 L 1145 137 L 1144 137 L 1143 136 L 1140 136 L 1139 135 L 1127 135 L 1126 136 L 1107 136 L 1106 135 L 1106 131 L 1107 130 L 1110 130 L 1111 129 L 1112 129 L 1113 128 L 1114 128 L 1115 127 L 1116 127 L 1117 126 L 1118 126 L 1119 125 L 1121 125 L 1122 124 L 1123 124 L 1124 123 L 1125 123 L 1126 122 L 1127 122 L 1128 121 L 1129 121 L 1130 120 L 1132 120 L 1133 119 L 1134 119 L 1135 118 L 1136 118 L 1137 117 L 1138 117 L 1139 116 L 1140 116 L 1141 115 L 1142 115 L 1143 114 L 1144 114 L 1146 112 L 1147 112 L 1152 107 L 1153 107 L 1153 100 L 1152 99 L 1136 99 L 1135 100 L 1126 100 L 1125 101 L 1121 101 L 1120 102 L 1117 102 L 1116 103 L 1112 103 L 1111 104 L 1105 104 L 1104 105 L 1100 105 L 1099 106 L 1096 106 L 1095 107 L 1092 107 L 1091 108 L 1087 108 L 1086 109 L 1082 109 L 1081 110 L 1075 110 L 1074 109 L 1074 105 L 1075 104 L 1076 104 L 1078 102 L 1079 102 L 1080 101 L 1081 101 L 1082 100 L 1083 100 L 1084 99 L 1085 99 L 1086 98 L 1087 98 L 1088 97 L 1089 97 L 1090 96 L 1091 96 L 1092 95 L 1093 95 L 1096 92 L 1097 92 L 1100 89 L 1101 89 L 1103 87 L 1104 87 L 1106 85 L 1107 85 L 1112 80 L 1112 79 L 1115 76 L 1115 72 L 1108 72 L 1107 71 L 1107 69 L 1106 68 L 1100 68 L 1099 69 L 1094 69 L 1093 70 L 1090 70 L 1089 71 L 1084 71 L 1083 72 L 1080 72 L 1079 73 L 1077 73 L 1076 74 L 1072 74 L 1071 75 L 1068 75 L 1067 76 L 1064 76 L 1063 77 L 1061 77 L 1060 78 L 1056 78 L 1055 79 L 1052 79 L 1051 80 L 1048 80 L 1047 81 L 1044 81 L 1043 82 L 1041 82 L 1040 83 L 1037 83 L 1036 84 L 1034 84 L 1033 85 L 1031 85 L 1030 86 L 1028 86 L 1027 87 L 1025 87 L 1024 88 L 1021 88 L 1020 89 L 1019 89 L 1018 90 L 1016 90 L 1015 91 L 1013 91 L 1012 92 L 1010 92 L 1009 93 L 1008 93 L 1007 94 L 1006 94 L 1005 95 L 1001 95 L 1000 94 L 1000 90 L 1001 89 L 1002 89 L 1005 86 L 1006 86 L 1008 84 L 1009 84 L 1014 79 L 1015 79 L 1018 76 L 1019 76 L 1022 73 L 1022 72 L 1026 68 L 1026 62 Z"/>
  </g>
</svg>
