<svg xmlns="http://www.w3.org/2000/svg" width="1408" height="768" viewBox="0 0 1408 768">
  <!-- Bird silhouette, holes filled. Same pixel space as the mask:
       draw at (0,0) unscaled and it overlays the mask exactly. -->
  <g fill="#000000" fill-rule="evenodd">
    <path d="M 1214 63 L 1213 64 L 1189 64 L 1188 65 L 1181 65 L 1180 66 L 1169 66 L 1168 67 L 1158 67 L 1157 68 L 1152 68 L 1151 69 L 1142 69 L 1141 70 L 1135 70 L 1134 71 L 1128 71 L 1127 72 L 1124 72 L 1123 73 L 1117 73 L 1116 74 L 1112 74 L 1111 75 L 1108 75 L 1107 76 L 1102 76 L 1101 77 L 1097 77 L 1096 78 L 1093 78 L 1092 79 L 1087 79 L 1086 80 L 1084 80 L 1083 81 L 1080 81 L 1079 82 L 1075 82 L 1074 83 L 1070 83 L 1069 84 L 1066 84 L 1065 85 L 1061 85 L 1060 86 L 1058 86 L 1057 87 L 1052 87 L 1051 88 L 1048 88 L 1047 89 L 1044 89 L 1043 90 L 1033 90 L 1032 89 L 1026 89 L 1025 90 L 1018 90 L 1017 91 L 1013 91 L 1012 92 L 1006 92 L 1005 93 L 1001 93 L 1000 94 L 997 94 L 996 95 L 991 95 L 990 96 L 988 96 L 987 97 L 984 97 L 983 98 L 981 98 L 980 99 L 977 99 L 976 100 L 974 100 L 973 101 L 970 101 L 969 102 L 967 102 L 966 103 L 965 103 L 964 104 L 961 104 L 960 105 L 958 105 L 957 106 L 956 106 L 955 107 L 952 107 L 951 108 L 950 108 L 949 109 L 947 109 L 946 110 L 945 110 L 944 111 L 942 111 L 941 112 L 940 112 L 939 113 L 937 113 L 936 114 L 935 114 L 934 115 L 932 115 L 931 116 L 929 116 L 928 117 L 927 117 L 926 118 L 924 118 L 923 119 L 921 119 L 920 120 L 916 120 L 914 118 L 907 118 L 906 119 L 904 119 L 903 120 L 901 120 L 900 121 L 898 121 L 897 122 L 895 122 L 894 123 L 892 123 L 891 124 L 889 124 L 888 125 L 887 125 L 886 126 L 885 126 L 884 127 L 882 127 L 881 128 L 879 128 L 878 129 L 877 129 L 876 130 L 874 130 L 873 131 L 872 131 L 871 132 L 869 132 L 868 133 L 867 133 L 866 134 L 864 134 L 863 135 L 862 135 L 861 136 L 859 136 L 857 138 L 855 138 L 854 139 L 853 139 L 852 140 L 851 140 L 850 141 L 849 141 L 847 143 L 846 143 L 845 144 L 844 144 L 843 145 L 842 145 L 841 146 L 840 146 L 839 147 L 838 147 L 837 148 L 836 148 L 835 149 L 834 149 L 833 150 L 832 150 L 831 151 L 830 151 L 829 152 L 828 152 L 827 153 L 826 153 L 824 155 L 823 155 L 821 157 L 820 157 L 819 158 L 818 158 L 816 160 L 815 160 L 814 161 L 813 161 L 812 162 L 811 162 L 808 165 L 807 165 L 804 168 L 803 168 L 799 172 L 798 172 L 793 177 L 793 178 L 790 181 L 790 182 L 785 187 L 785 188 L 780 193 L 780 194 L 777 197 L 777 198 L 774 201 L 774 202 L 773 203 L 773 204 L 770 207 L 770 208 L 769 209 L 769 210 L 766 213 L 766 214 L 763 217 L 763 218 L 758 223 L 758 224 L 757 225 L 756 225 L 756 226 L 753 229 L 753 230 L 752 231 L 751 231 L 750 232 L 750 233 L 743 240 L 743 241 L 731 253 L 731 254 L 730 255 L 729 255 L 714 270 L 713 270 L 711 272 L 710 272 L 702 280 L 701 280 L 698 283 L 697 283 L 696 284 L 687 284 L 686 283 L 679 283 L 678 282 L 666 282 L 665 281 L 651 281 L 650 280 L 645 280 L 640 275 L 640 274 L 639 273 L 638 273 L 635 270 L 634 270 L 633 269 L 632 269 L 630 267 L 629 267 L 628 266 L 627 266 L 626 265 L 625 265 L 624 264 L 623 264 L 617 258 L 616 258 L 612 254 L 611 254 L 607 250 L 606 250 L 604 248 L 603 248 L 602 247 L 601 247 L 599 245 L 597 245 L 596 244 L 595 244 L 594 243 L 593 243 L 592 242 L 590 242 L 589 241 L 588 241 L 587 240 L 586 240 L 585 239 L 584 239 L 583 238 L 582 238 L 581 237 L 580 237 L 579 236 L 578 236 L 577 235 L 575 235 L 574 234 L 572 234 L 571 233 L 569 233 L 568 232 L 567 232 L 566 231 L 565 231 L 564 230 L 563 230 L 562 229 L 561 229 L 560 228 L 558 228 L 557 227 L 556 227 L 555 226 L 554 226 L 552 224 L 550 224 L 548 222 L 547 222 L 546 221 L 545 221 L 544 220 L 542 220 L 541 219 L 539 219 L 538 218 L 534 218 L 533 217 L 529 217 L 528 216 L 526 216 L 525 215 L 524 215 L 523 214 L 522 214 L 521 213 L 520 213 L 519 212 L 518 212 L 517 211 L 515 211 L 514 210 L 513 210 L 512 209 L 509 209 L 508 208 L 505 208 L 504 207 L 487 207 L 486 206 L 485 206 L 484 205 L 483 205 L 482 204 L 481 204 L 480 203 L 478 203 L 477 202 L 475 202 L 474 201 L 471 201 L 470 200 L 447 200 L 446 199 L 445 199 L 444 198 L 443 198 L 441 196 L 440 196 L 438 194 L 436 194 L 435 193 L 434 193 L 433 192 L 432 192 L 431 191 L 429 191 L 428 190 L 426 190 L 425 189 L 424 189 L 423 188 L 420 188 L 419 187 L 417 187 L 416 186 L 414 186 L 413 185 L 404 185 L 403 184 L 402 184 L 401 183 L 400 183 L 399 182 L 398 182 L 397 181 L 396 181 L 395 180 L 392 180 L 391 179 L 390 179 L 389 178 L 386 178 L 385 177 L 382 177 L 381 176 L 379 176 L 378 175 L 373 175 L 372 174 L 366 174 L 365 173 L 348 173 L 347 172 L 342 172 L 341 171 L 336 171 L 335 170 L 331 170 L 330 169 L 327 169 L 326 168 L 321 168 L 320 167 L 315 167 L 314 166 L 305 166 L 304 165 L 297 165 L 296 164 L 294 164 L 293 163 L 287 163 L 286 162 L 283 162 L 282 161 L 277 161 L 276 160 L 263 160 L 262 159 L 235 159 L 234 160 L 214 160 L 213 159 L 177 159 L 176 160 L 166 160 L 165 161 L 156 161 L 155 162 L 149 162 L 148 163 L 146 163 L 145 164 L 141 164 L 141 168 L 140 169 L 136 169 L 135 170 L 126 170 L 125 171 L 120 171 L 119 172 L 114 172 L 113 173 L 108 173 L 107 174 L 102 174 L 101 175 L 94 175 L 93 176 L 90 176 L 89 177 L 85 177 L 84 178 L 81 178 L 80 179 L 77 179 L 76 180 L 72 180 L 71 181 L 69 181 L 68 182 L 63 182 L 62 183 L 60 183 L 59 184 L 57 184 L 56 185 L 53 185 L 53 189 L 62 189 L 63 188 L 75 188 L 76 189 L 76 193 L 75 194 L 73 194 L 72 195 L 71 195 L 70 196 L 69 196 L 68 197 L 67 197 L 66 198 L 65 198 L 64 199 L 63 199 L 62 200 L 61 200 L 60 201 L 58 201 L 56 203 L 55 203 L 54 204 L 53 204 L 53 208 L 58 208 L 59 209 L 76 209 L 77 208 L 83 208 L 84 207 L 90 207 L 91 206 L 101 206 L 102 207 L 102 211 L 101 212 L 100 212 L 100 216 L 121 216 L 122 215 L 128 215 L 129 214 L 138 214 L 139 213 L 142 213 L 143 212 L 150 212 L 151 211 L 152 211 L 153 210 L 159 210 L 161 212 L 164 212 L 165 213 L 172 213 L 173 214 L 185 214 L 186 213 L 193 213 L 194 212 L 204 212 L 205 211 L 211 211 L 212 210 L 218 210 L 219 209 L 225 209 L 226 208 L 230 208 L 231 207 L 249 207 L 250 206 L 256 206 L 257 207 L 261 207 L 262 208 L 264 208 L 265 209 L 267 209 L 268 210 L 270 210 L 271 211 L 273 211 L 274 212 L 277 212 L 278 213 L 280 213 L 281 214 L 282 214 L 283 215 L 284 215 L 285 216 L 288 216 L 289 217 L 291 217 L 292 218 L 293 218 L 294 219 L 296 219 L 297 220 L 299 220 L 300 221 L 302 221 L 303 222 L 304 222 L 305 223 L 307 223 L 309 225 L 310 225 L 311 226 L 314 226 L 315 227 L 317 227 L 318 228 L 320 228 L 321 229 L 324 229 L 325 230 L 327 230 L 328 231 L 329 231 L 330 232 L 331 232 L 332 233 L 333 233 L 335 235 L 336 235 L 338 237 L 339 237 L 342 240 L 343 240 L 345 242 L 346 242 L 348 244 L 349 244 L 351 246 L 352 246 L 353 247 L 354 247 L 355 248 L 356 248 L 357 249 L 358 249 L 360 251 L 362 251 L 363 252 L 365 252 L 366 253 L 367 253 L 368 254 L 369 254 L 370 255 L 372 255 L 373 256 L 374 256 L 375 257 L 377 257 L 378 258 L 380 258 L 381 259 L 382 259 L 383 260 L 386 260 L 387 261 L 389 261 L 390 262 L 392 262 L 393 263 L 395 263 L 396 264 L 398 264 L 399 265 L 401 265 L 402 266 L 403 266 L 404 267 L 405 267 L 406 268 L 407 268 L 408 269 L 409 269 L 410 270 L 411 270 L 413 272 L 414 272 L 415 273 L 416 273 L 417 274 L 419 274 L 420 275 L 421 275 L 422 276 L 423 276 L 424 277 L 425 277 L 426 278 L 427 278 L 429 280 L 430 280 L 433 283 L 434 283 L 440 289 L 440 294 L 439 295 L 438 295 L 437 296 L 436 296 L 435 297 L 434 297 L 432 299 L 431 299 L 430 300 L 429 300 L 428 301 L 427 301 L 424 304 L 423 304 L 421 306 L 420 306 L 416 310 L 415 310 L 412 313 L 411 313 L 401 323 L 401 324 L 398 327 L 398 328 L 396 330 L 396 331 L 395 332 L 395 333 L 393 335 L 393 336 L 391 338 L 391 340 L 387 344 L 385 344 L 385 345 L 383 347 L 382 347 L 381 348 L 380 348 L 378 350 L 378 353 L 375 356 L 372 356 L 371 357 L 370 357 L 369 358 L 367 358 L 366 359 L 364 359 L 363 360 L 361 360 L 360 361 L 359 361 L 358 362 L 355 362 L 353 364 L 350 364 L 349 365 L 348 365 L 347 366 L 346 366 L 345 367 L 344 367 L 343 368 L 342 368 L 341 369 L 340 369 L 339 370 L 338 370 L 337 371 L 336 371 L 335 372 L 334 372 L 333 373 L 332 373 L 331 374 L 330 374 L 328 376 L 327 376 L 326 377 L 325 377 L 320 382 L 319 382 L 318 383 L 318 384 L 315 387 L 315 388 L 313 390 L 313 391 L 312 392 L 312 393 L 311 394 L 311 399 L 315 399 L 316 398 L 331 398 L 332 397 L 349 397 L 350 396 L 358 396 L 359 395 L 369 395 L 370 394 L 374 394 L 375 393 L 381 393 L 382 392 L 386 392 L 387 393 L 389 393 L 390 394 L 392 394 L 393 395 L 397 395 L 398 396 L 401 396 L 402 397 L 406 397 L 407 398 L 410 398 L 411 399 L 412 399 L 413 400 L 415 400 L 416 401 L 417 401 L 418 402 L 420 402 L 422 404 L 424 404 L 426 406 L 427 406 L 429 408 L 430 408 L 434 412 L 435 412 L 437 414 L 438 414 L 440 416 L 441 416 L 443 418 L 444 418 L 446 420 L 447 420 L 448 421 L 449 421 L 450 422 L 451 422 L 452 423 L 454 423 L 455 424 L 457 424 L 458 425 L 459 425 L 461 427 L 462 427 L 463 428 L 464 428 L 465 429 L 466 429 L 467 430 L 468 430 L 470 432 L 471 432 L 472 433 L 473 433 L 474 434 L 475 434 L 476 435 L 477 435 L 478 436 L 479 436 L 481 438 L 482 438 L 486 442 L 487 442 L 498 453 L 498 454 L 502 458 L 503 458 L 504 459 L 504 461 L 510 467 L 510 468 L 513 471 L 513 472 L 515 474 L 515 475 L 520 480 L 520 481 L 524 485 L 524 486 L 527 489 L 528 489 L 529 490 L 529 491 L 531 493 L 532 493 L 536 497 L 537 497 L 540 500 L 540 501 L 541 502 L 542 502 L 549 509 L 550 509 L 554 513 L 555 513 L 559 517 L 560 517 L 563 520 L 564 520 L 567 523 L 568 523 L 570 525 L 571 525 L 573 527 L 574 527 L 576 529 L 577 529 L 579 531 L 580 531 L 582 533 L 583 533 L 584 534 L 585 534 L 586 535 L 587 535 L 589 537 L 590 537 L 591 538 L 592 538 L 594 540 L 595 540 L 596 541 L 597 541 L 598 542 L 599 542 L 600 543 L 601 543 L 602 544 L 603 544 L 604 545 L 605 545 L 606 546 L 607 546 L 608 547 L 610 547 L 611 548 L 612 548 L 613 549 L 614 549 L 615 550 L 617 550 L 618 551 L 619 551 L 620 552 L 622 552 L 623 553 L 625 553 L 626 554 L 627 554 L 628 555 L 630 555 L 631 556 L 633 556 L 634 557 L 637 557 L 638 558 L 640 558 L 641 559 L 642 559 L 643 560 L 643 565 L 639 569 L 639 573 L 644 578 L 645 578 L 651 584 L 651 585 L 652 586 L 652 587 L 653 588 L 653 589 L 655 591 L 655 593 L 657 595 L 657 596 L 658 597 L 677 597 L 678 598 L 680 598 L 681 599 L 683 599 L 684 600 L 686 600 L 687 601 L 692 601 L 693 600 L 694 600 L 695 599 L 696 599 L 697 598 L 698 598 L 699 597 L 699 593 L 696 593 L 695 592 L 695 587 L 685 587 L 681 583 L 679 583 L 678 582 L 677 582 L 673 578 L 673 574 L 674 573 L 679 573 L 680 574 L 682 574 L 684 576 L 685 576 L 686 577 L 694 577 L 695 578 L 699 578 L 699 574 L 700 573 L 707 573 L 708 574 L 718 574 L 719 575 L 733 575 L 734 576 L 734 580 L 732 582 L 731 582 L 731 583 L 728 586 L 728 591 L 737 600 L 737 601 L 739 603 L 739 604 L 740 605 L 740 606 L 741 607 L 741 609 L 742 610 L 742 612 L 743 613 L 743 614 L 744 615 L 744 616 L 745 617 L 746 617 L 747 618 L 757 618 L 758 619 L 759 619 L 760 620 L 765 620 L 766 621 L 777 621 L 778 622 L 780 622 L 781 623 L 790 623 L 791 622 L 794 622 L 795 621 L 796 621 L 796 617 L 789 617 L 786 614 L 786 606 L 779 606 L 777 604 L 777 603 L 770 603 L 769 602 L 766 602 L 764 600 L 764 599 L 763 598 L 763 596 L 761 594 L 761 593 L 759 591 L 759 590 L 758 589 L 758 585 L 760 583 L 766 583 L 767 584 L 768 584 L 770 586 L 773 586 L 774 587 L 778 587 L 783 592 L 788 592 L 789 591 L 789 590 L 790 589 L 794 589 L 796 591 L 800 591 L 800 587 L 794 581 L 792 581 L 791 580 L 791 576 L 792 575 L 824 575 L 825 576 L 833 576 L 834 577 L 840 577 L 842 575 L 844 575 L 846 573 L 847 573 L 848 572 L 848 571 L 855 564 L 857 564 L 858 563 L 862 563 L 863 564 L 865 564 L 866 565 L 867 565 L 868 566 L 872 566 L 874 564 L 900 564 L 912 576 L 913 576 L 921 584 L 922 584 L 929 591 L 930 591 L 935 596 L 936 596 L 942 602 L 943 602 L 951 610 L 952 610 L 957 615 L 958 615 L 967 624 L 968 624 L 975 631 L 976 631 L 984 639 L 985 639 L 992 646 L 993 646 L 1001 654 L 1002 654 L 1007 659 L 1008 659 L 1009 660 L 1009 661 L 1010 662 L 1011 662 L 1015 666 L 1016 666 L 1021 671 L 1022 671 L 1025 674 L 1026 674 L 1029 677 L 1030 677 L 1032 679 L 1033 679 L 1036 682 L 1037 682 L 1039 684 L 1040 684 L 1041 685 L 1042 685 L 1044 687 L 1045 687 L 1047 689 L 1048 689 L 1049 690 L 1050 690 L 1051 691 L 1052 691 L 1054 693 L 1056 693 L 1058 695 L 1059 695 L 1060 696 L 1061 696 L 1062 697 L 1063 697 L 1064 698 L 1065 698 L 1066 699 L 1070 699 L 1071 700 L 1079 700 L 1080 699 L 1081 699 L 1082 698 L 1083 698 L 1083 697 L 1085 695 L 1093 695 L 1094 696 L 1099 696 L 1100 697 L 1105 697 L 1106 698 L 1113 698 L 1115 696 L 1116 696 L 1121 691 L 1122 691 L 1123 690 L 1137 690 L 1139 688 L 1139 687 L 1140 686 L 1140 685 L 1142 683 L 1142 682 L 1145 679 L 1145 675 L 1146 674 L 1146 670 L 1147 669 L 1147 661 L 1148 660 L 1161 660 L 1162 661 L 1169 661 L 1170 662 L 1178 662 L 1179 661 L 1182 661 L 1183 660 L 1187 660 L 1188 659 L 1189 659 L 1190 658 L 1191 658 L 1192 657 L 1193 657 L 1194 656 L 1195 656 L 1195 655 L 1196 654 L 1197 654 L 1197 653 L 1199 651 L 1199 649 L 1203 645 L 1205 645 L 1206 644 L 1207 644 L 1209 642 L 1210 642 L 1212 640 L 1213 640 L 1218 635 L 1218 623 L 1221 620 L 1222 620 L 1228 614 L 1228 609 L 1227 608 L 1227 607 L 1224 604 L 1224 603 L 1216 595 L 1215 595 L 1212 592 L 1211 592 L 1209 590 L 1208 590 L 1206 588 L 1205 588 L 1204 587 L 1203 587 L 1202 586 L 1201 586 L 1200 585 L 1199 585 L 1198 584 L 1197 584 L 1195 582 L 1193 582 L 1191 580 L 1190 580 L 1189 579 L 1188 579 L 1187 578 L 1186 578 L 1185 577 L 1184 577 L 1183 576 L 1182 576 L 1181 575 L 1180 575 L 1179 574 L 1178 574 L 1177 573 L 1176 573 L 1175 572 L 1174 572 L 1173 571 L 1171 571 L 1170 570 L 1169 570 L 1168 569 L 1166 569 L 1165 568 L 1164 568 L 1163 567 L 1161 567 L 1160 566 L 1158 566 L 1157 565 L 1156 565 L 1155 564 L 1153 564 L 1152 563 L 1149 563 L 1148 562 L 1145 562 L 1144 561 L 1143 561 L 1142 560 L 1140 560 L 1139 559 L 1137 559 L 1136 558 L 1134 558 L 1133 557 L 1131 557 L 1130 556 L 1128 556 L 1127 555 L 1125 555 L 1124 554 L 1123 554 L 1122 553 L 1120 553 L 1119 552 L 1117 552 L 1116 551 L 1113 551 L 1112 550 L 1110 550 L 1109 549 L 1108 549 L 1107 548 L 1105 548 L 1104 547 L 1102 547 L 1101 546 L 1099 546 L 1098 545 L 1097 545 L 1096 544 L 1094 544 L 1093 543 L 1092 543 L 1091 542 L 1089 542 L 1088 541 L 1086 541 L 1085 540 L 1083 540 L 1082 539 L 1081 539 L 1080 538 L 1078 538 L 1077 537 L 1076 537 L 1075 536 L 1073 536 L 1072 535 L 1071 535 L 1070 534 L 1068 534 L 1067 533 L 1066 533 L 1065 532 L 1064 532 L 1063 531 L 1061 531 L 1060 530 L 1059 530 L 1058 529 L 1056 529 L 1055 528 L 1054 528 L 1053 527 L 1052 527 L 1051 526 L 1049 526 L 1048 525 L 1047 525 L 1046 524 L 1044 524 L 1043 523 L 1042 523 L 1041 522 L 1039 522 L 1038 521 L 1036 521 L 1035 520 L 1034 520 L 1033 519 L 1032 519 L 1031 518 L 1029 518 L 1028 517 L 1026 517 L 1025 516 L 1024 516 L 1023 515 L 1022 515 L 1021 514 L 1020 514 L 1019 513 L 1018 513 L 1017 512 L 1015 512 L 1014 511 L 1013 511 L 1012 510 L 1011 510 L 1010 509 L 1009 509 L 1008 508 L 1007 508 L 1006 507 L 1005 507 L 1000 502 L 999 502 L 996 499 L 995 499 L 994 498 L 993 498 L 991 496 L 990 496 L 987 493 L 986 493 L 985 492 L 985 491 L 984 490 L 984 487 L 983 487 L 981 485 L 980 485 L 978 483 L 977 483 L 976 482 L 975 482 L 973 480 L 972 480 L 969 477 L 968 477 L 966 475 L 965 475 L 963 473 L 962 473 L 960 471 L 959 471 L 957 469 L 956 469 L 954 467 L 953 467 L 947 461 L 946 461 L 943 458 L 942 458 L 941 457 L 940 457 L 938 455 L 937 455 L 935 453 L 934 453 L 933 452 L 932 452 L 931 451 L 927 451 L 926 450 L 925 450 L 924 449 L 924 445 L 925 444 L 925 443 L 926 442 L 926 441 L 927 440 L 928 440 L 929 439 L 933 439 L 934 440 L 936 440 L 937 441 L 946 441 L 947 440 L 949 440 L 950 439 L 953 439 L 954 438 L 957 438 L 958 437 L 960 437 L 961 436 L 962 436 L 963 435 L 965 435 L 966 434 L 967 434 L 971 430 L 971 429 L 972 428 L 972 415 L 973 414 L 978 414 L 979 413 L 984 413 L 985 412 L 988 412 L 989 411 L 993 411 L 994 410 L 995 410 L 996 409 L 997 409 L 1002 404 L 1002 403 L 1005 400 L 1005 399 L 1006 398 L 1006 397 L 1008 395 L 1008 394 L 1009 393 L 1009 383 L 1010 382 L 1011 382 L 1012 381 L 1013 381 L 1014 380 L 1015 380 L 1016 379 L 1017 379 L 1018 378 L 1019 378 L 1020 377 L 1021 377 L 1029 369 L 1029 368 L 1030 367 L 1030 366 L 1031 365 L 1031 357 L 1034 354 L 1035 354 L 1037 352 L 1038 352 L 1038 351 L 1039 350 L 1040 350 L 1040 349 L 1045 344 L 1045 343 L 1046 342 L 1046 341 L 1048 339 L 1048 338 L 1049 337 L 1049 336 L 1050 335 L 1050 332 L 1051 331 L 1051 322 L 1053 320 L 1055 320 L 1056 319 L 1057 319 L 1058 318 L 1059 318 L 1062 315 L 1062 314 L 1063 313 L 1063 311 L 1064 310 L 1064 304 L 1063 303 L 1063 302 L 1061 300 L 1061 295 L 1062 294 L 1073 294 L 1074 293 L 1081 293 L 1082 292 L 1086 292 L 1087 291 L 1090 291 L 1091 290 L 1095 290 L 1096 289 L 1098 289 L 1099 288 L 1101 288 L 1102 287 L 1106 287 L 1107 286 L 1109 286 L 1110 285 L 1112 285 L 1113 284 L 1114 284 L 1115 283 L 1116 283 L 1117 282 L 1118 282 L 1119 281 L 1120 281 L 1121 280 L 1122 280 L 1124 278 L 1125 278 L 1128 275 L 1128 274 L 1129 273 L 1129 272 L 1130 271 L 1130 265 L 1128 263 L 1128 259 L 1129 258 L 1137 258 L 1138 257 L 1144 257 L 1145 256 L 1149 256 L 1150 255 L 1155 255 L 1156 254 L 1158 254 L 1159 253 L 1161 253 L 1162 252 L 1164 252 L 1165 251 L 1166 251 L 1167 250 L 1168 250 L 1169 249 L 1170 249 L 1171 248 L 1172 248 L 1174 246 L 1175 246 L 1176 245 L 1177 245 L 1178 244 L 1179 244 L 1181 242 L 1182 242 L 1183 241 L 1184 241 L 1187 238 L 1187 232 L 1186 231 L 1185 231 L 1184 230 L 1183 230 L 1181 228 L 1181 224 L 1182 223 L 1190 223 L 1191 222 L 1196 222 L 1197 221 L 1201 221 L 1202 220 L 1205 220 L 1206 219 L 1209 219 L 1210 218 L 1213 218 L 1214 217 L 1218 217 L 1219 216 L 1220 216 L 1221 215 L 1222 215 L 1223 214 L 1225 214 L 1226 213 L 1227 213 L 1228 212 L 1229 212 L 1230 211 L 1231 211 L 1232 210 L 1233 210 L 1235 208 L 1236 208 L 1240 204 L 1240 203 L 1241 202 L 1241 197 L 1240 196 L 1239 196 L 1238 195 L 1236 195 L 1235 194 L 1231 194 L 1230 193 L 1226 193 L 1225 192 L 1224 192 L 1223 191 L 1223 187 L 1224 186 L 1232 186 L 1233 185 L 1242 185 L 1243 184 L 1249 184 L 1250 183 L 1259 183 L 1260 182 L 1265 182 L 1266 181 L 1269 181 L 1270 180 L 1275 180 L 1276 179 L 1279 179 L 1280 178 L 1282 178 L 1283 177 L 1286 177 L 1287 176 L 1288 176 L 1289 175 L 1290 175 L 1291 174 L 1292 174 L 1293 173 L 1295 173 L 1296 172 L 1297 172 L 1299 170 L 1300 170 L 1303 167 L 1304 167 L 1305 166 L 1305 165 L 1306 164 L 1306 159 L 1305 158 L 1302 158 L 1301 157 L 1299 157 L 1298 156 L 1293 156 L 1292 155 L 1288 155 L 1287 154 L 1281 154 L 1280 153 L 1276 153 L 1275 152 L 1275 148 L 1276 147 L 1281 147 L 1282 146 L 1287 146 L 1288 145 L 1292 145 L 1293 144 L 1298 144 L 1299 143 L 1302 143 L 1303 142 L 1306 142 L 1307 141 L 1309 141 L 1310 140 L 1313 140 L 1314 139 L 1316 139 L 1317 138 L 1318 138 L 1319 137 L 1321 137 L 1322 136 L 1323 136 L 1324 135 L 1325 135 L 1326 134 L 1328 134 L 1330 132 L 1331 132 L 1332 131 L 1333 131 L 1334 130 L 1335 130 L 1337 128 L 1338 128 L 1342 124 L 1342 123 L 1343 122 L 1343 118 L 1342 118 L 1341 117 L 1338 117 L 1337 116 L 1322 116 L 1321 115 L 1314 115 L 1313 114 L 1306 114 L 1305 113 L 1305 109 L 1306 108 L 1308 108 L 1309 107 L 1312 107 L 1313 106 L 1315 106 L 1317 104 L 1318 104 L 1319 103 L 1321 103 L 1322 102 L 1323 102 L 1324 101 L 1325 101 L 1326 100 L 1327 100 L 1328 99 L 1329 99 L 1332 96 L 1333 96 L 1338 91 L 1338 87 L 1337 86 L 1334 86 L 1333 85 L 1325 85 L 1324 84 L 1300 84 L 1299 83 L 1267 83 L 1266 84 L 1259 84 L 1258 83 L 1258 79 L 1259 78 L 1260 78 L 1262 76 L 1263 76 L 1264 75 L 1265 75 L 1266 74 L 1267 74 L 1268 73 L 1269 73 L 1273 69 L 1273 65 L 1270 65 L 1269 64 L 1256 64 L 1255 63 Z"/>
  </g>
</svg>
